<svg id="Accounting" height="512" viewBox="0 0 64 64" width="512" xmlns="http://www.w3.org/2000/svg"><path d="m59 19h-1v-12a.984.984 0 0 0 -.2-.6l-3-4a.994.994 0 0 0 -1.25-.29l-3.55 1.77-3.55-1.77a.956.956 0 0 0 -.9 0l-3.55 1.77-3.55-1.77a1 1 0 0 0 -1.16.18l-3 3a1.033 1.033 0 0 0 -.29.71v13h-1a3 3 0 0 0 -1 .18v-16.18a1 1 0 0 0 -1-1h-22a1 1 0 0 0 -1 1v19.79l-4.71 10.53a9.292 9.292 0 0 0 -1.29 4.68v23a1 1 0 0 0 1 1h12a1 1 0 0 0 .81-.42l.85-1.19a11 11 0 0 0 0-12.78l-.43-.61.71-1h13.06v13a3.009 3.009 0 0 0 3 3h26a3.009 3.009 0 0 0 3-3v-37a3.009 3.009 0 0 0 -3-3zm-41.47 22.73-3.34 4.69a.991.991 0 0 0 0 1.16l.84 1.19a8.981 8.981 0 0 1 0 10.46l-.54.77h-10.49v-22a7.318 7.318 0 0 1 1.09-3.8l2.91-6.51v12.31a1 1 0 0 0 1.58.81l4.1-2.93a2.761 2.761 0 0 1 3.85 3.85zm2.47-23.73a6 6 0 1 1 -6 6 6 6 0 0 1 6-6zm-6 .73v-6.83a5.01 5.01 0 0 0 3.9-3.9h4.2a5.01 5.01 0 0 0 3.9 3.9v6.83a7.958 7.958 0 0 0 -12 0zm6 13.27a7.974 7.974 0 0 0 6-2.73v6.83a5.01 5.01 0 0 0 -3.9 3.9h-2.06a4.747 4.747 0 0 0 -6.04-4.44v-6.29a7.974 7.974 0 0 0 6 2.73zm10 12h-11.63l.79-1.11a4.554 4.554 0 0 0 .49-.89h3.35a1 1 0 0 0 1-1 3.009 3.009 0 0 1 3-3 1 1 0 0 0 1-1v-26a1 1 0 0 0 -1-1 3.009 3.009 0 0 1 -3-3 1 1 0 0 0 -1-1h-6a1 1 0 0 0 -1 1 3.009 3.009 0 0 1 -3 3 1 1 0 0 0 -1 1v25.63l-2 1.43v-34.06h20zm6-37.59 2.2-2.19 3.35 1.67a.956.956 0 0 0 .9 0l3.55-1.77 3.55 1.77a.956.956 0 0 0 .9 0l3.25-1.62 2.3 3.06v14.67h-20zm24 52.59a1 1 0 0 1 -1 1h-26a1 1 0 0 1 -1-1v-37a1 1 0 0 1 1-1h1v2a1 1 0 0 0 1 1h22a1 1 0 0 0 1-1v-2h1a1 1 0 0 1 1 1z"/><path d="m38 9h16v2h-16z"/><path d="m38 13h16v2h-16z"/><path d="m46 17h8v2h-8z"/><path d="m40 35h-4a1 1 0 0 0 -1 1v4a1 1 0 0 0 1 1h4a1 1 0 0 0 1-1v-4a1 1 0 0 0 -1-1zm-1 4h-2v-2h2z"/><path d="m40 43h-4a1 1 0 0 0 -1 1v4a1 1 0 0 0 1 1h4a1 1 0 0 0 1-1v-4a1 1 0 0 0 -1-1zm-1 4h-2v-2h2z"/><path d="m40 51h-4a1 1 0 0 0 -1 1v4a1 1 0 0 0 1 1h4a1 1 0 0 0 1-1v-4a1 1 0 0 0 -1-1zm-1 4h-2v-2h2z"/><path d="m48 35h-4a1 1 0 0 0 -1 1v4a1 1 0 0 0 1 1h4a1 1 0 0 0 1-1v-4a1 1 0 0 0 -1-1zm-1 4h-2v-2h2z"/><path d="m48 43h-4a1 1 0 0 0 -1 1v4a1 1 0 0 0 1 1h4a1 1 0 0 0 1-1v-4a1 1 0 0 0 -1-1zm-1 4h-2v-2h2z"/><path d="m48 51h-4a1 1 0 0 0 -1 1v4a1 1 0 0 0 1 1h4a1 1 0 0 0 1-1v-4a1 1 0 0 0 -1-1zm-1 4h-2v-2h2z"/><path d="m56 35h-4a1 1 0 0 0 -1 1v4a1 1 0 0 0 1 1h4a1 1 0 0 0 1-1v-4a1 1 0 0 0 -1-1zm-1 4h-2v-2h2z"/><path d="m56 43h-4a1 1 0 0 0 -1 1v4a1 1 0 0 0 1 1h4a1 1 0 0 0 1-1v-4a1 1 0 0 0 -1-1zm-1 4h-2v-2h2z"/><path d="m56 51h-4a1 1 0 0 0 -1 1v4a1 1 0 0 0 1 1h4a1 1 0 0 0 1-1v-4a1 1 0 0 0 -1-1zm-1 4h-2v-2h2z"/><path d="m56 26h-20a1 1 0 0 0 -1 1v6a1 1 0 0 0 1 1h20a1 1 0 0 0 1-1v-6a1 1 0 0 0 -1-1zm-1 6h-18v-4h18z"/><path d="m38 17h2v2h-2z"/><path d="m42 17h2v2h-2z"/></svg>