<svg width="276" height="128" viewBox="0 0 276 128" fill="none" xmlns="http://www.w3.org/2000/svg">
<path d="M-29 126.596C-25.9919 126.336 208.523 126.487 325.404 126.596M69.7066 109.055V126.452L61.0266 126.452V73L206.902 73.0051V126.504L198.495 126.499V109.055M69.7066 109.055C71.2107 108.535 156.192 108.839 198.495 109.055M69.7066 109.055V94.6006M198.495 109.055V94.6006M69.7066 94.6006V80.146H198.495V94.6006M69.7066 94.6006H198.495M75.0592 80.079V108.769M80.4528 80.079V108.769M85.8464 80.079V108.769M91.24 80.079V108.769M96.6335 80.079V108.769M102.027 80.079V108.769M107.421 80.079V108.769M112.814 80.079V108.769M118.208 80.079V108.769M123.602 80.079V108.769M128.995 80.079V108.769M134.389 80.079V108.769M139.782 80.079V108.769M145.176 80.079V108.769M150.57 80.079V108.769M155.963 80.079V108.769M161.357 80.079V108.769M166.75 80.079V108.769M172.144 80.079V108.769M177.538 80.079V108.769M182.931 80.079V108.769M188.325 80.079V108.769M193.718 80.079V108.769" stroke="#F8F8F8" stroke-width="1.07863" stroke-linecap="round" stroke-linejoin="round"/>
<path d="M189.065 105.746C189.065 105.899 189.15 106.037 189.284 106.101C189.417 106.164 189.574 106.142 189.686 106.044C189.7 106.031 191.122 104.789 193.163 104.169C194.303 103.823 195.396 103.737 196.437 103.904C195.745 104.031 195.071 104.317 194.47 104.781C192.401 106.377 191.969 109.42 193.508 111.565C193.58 111.666 193.693 111.723 193.811 111.722C193.836 111.722 193.862 111.72 193.888 111.714C194.031 111.683 194.145 111.568 194.178 111.42C194.181 111.406 194.511 109.967 195.487 108.637C196.706 106.974 198.351 106.214 200.377 106.372V125.282H199.411C199.204 125.282 199.035 125.457 199.035 125.673C199.035 125.889 199.204 126.063 199.411 126.063H202.096C202.304 126.063 202.473 125.889 202.473 125.673C202.473 125.457 202.304 125.282 202.096 125.282H201.131V106.373C203.164 106.211 204.816 106.969 206.039 108.637C207.014 109.967 207.344 111.406 207.347 111.42C207.381 111.568 207.494 111.683 207.637 111.714C207.663 111.72 207.689 111.722 207.715 111.722C207.832 111.722 207.945 111.665 208.017 111.565C209.556 109.421 209.125 106.377 207.055 104.781C206.441 104.307 205.75 104.018 205.042 103.895C206.054 103.748 207.114 103.836 208.218 104.167C210.275 104.786 211.725 106.047 211.739 106.06C211.85 106.158 212.007 106.181 212.141 106.117C212.274 106.053 212.359 105.915 212.359 105.763C212.359 102.317 209.655 99.5143 206.332 99.5143C205.132 99.5143 204.016 99.8838 203.075 100.513C203.974 99.4784 205.159 98.7942 206.626 98.4748C208.507 98.0659 210.169 98.4314 210.185 98.4346C210.328 98.467 210.477 98.4103 210.566 98.2889C210.655 98.1674 210.667 98.0042 210.599 97.8699C209.183 95.112 205.866 94.0611 203.204 95.5283C202 96.1922 201.138 97.2614 200.681 98.4865C200.224 97.2611 199.362 96.1922 198.158 95.5283C195.496 94.0611 192.179 95.1116 190.764 97.8699C190.695 98.0046 190.707 98.1682 190.796 98.2893C190.885 98.4103 191.034 98.4681 191.177 98.4346C191.193 98.4307 192.832 98.0671 194.711 98.4693C196.192 98.7868 197.387 99.4745 198.291 100.518C197.358 99.8963 196.251 99.5307 195.061 99.5307C191.755 99.5304 189.065 102.319 189.065 105.746ZM189.876 104.937C190.255 102.322 192.436 100.311 195.061 100.311C197.651 100.311 199.809 102.269 200.23 104.831C195.983 101.399 191.539 103.795 189.876 104.937ZM193.709 110.401C192.932 108.687 193.398 106.581 194.919 105.408C195.621 104.866 196.442 104.605 197.256 104.605C198.172 104.605 199.079 104.936 199.8 105.569C195.965 105.606 194.296 108.828 193.709 110.401ZM207.816 110.401C207.229 108.828 205.561 105.606 201.725 105.569C203.086 104.372 205.114 104.258 206.606 105.408C208.127 106.58 208.593 108.687 207.816 110.401ZM211.549 104.953C210.521 104.245 208.429 103.058 205.974 103.058C204.444 103.058 202.773 103.52 201.132 104.847C201.553 102.266 203.724 100.295 206.332 100.295C208.975 100.295 211.17 102.32 211.549 104.953ZM203.559 96.2172C204.262 95.8294 205.018 95.6455 205.764 95.6455C207.203 95.6455 208.603 96.3297 209.509 97.5532C207.664 97.3821 203.255 97.4915 201.269 101.976C200.613 99.7807 201.531 97.336 203.559 96.2172ZM192.815 97.5094C192.45 97.5094 192.124 97.5282 191.852 97.5532C193.228 95.6955 195.744 95.0812 197.804 96.2172C199.832 97.3356 200.75 99.7807 200.093 101.976C198.398 98.1495 194.94 97.5094 192.815 97.5094Z" fill="#F3B13D"/>
<path d="M203.559 96.2172C204.262 95.8294 205.018 95.6455 205.764 95.6455C207.203 95.6455 208.603 96.3297 209.509 97.5532C207.664 97.3821 203.255 97.4915 201.269 101.976C200.613 99.7807 201.531 97.336 203.559 96.2172Z" fill="#F3B13D"/>
<path d="M192.815 97.5094C192.45 97.5094 192.124 97.5282 191.852 97.5532C193.228 95.6955 195.744 95.0812 197.804 96.2172C199.832 97.3356 200.75 99.7807 200.093 101.976C198.398 98.1495 194.94 97.5094 192.815 97.5094Z" fill="#F3B13D"/>
<path d="M189.876 104.937C190.255 102.322 192.436 100.311 195.061 100.311C197.651 100.311 199.809 102.269 200.23 104.831C195.983 101.399 191.539 103.795 189.876 104.937Z" fill="#F3B13D"/>
<path d="M193.709 110.401C192.932 108.687 193.398 106.581 194.919 105.408C195.621 104.866 196.442 104.605 197.256 104.605C198.172 104.605 199.079 104.936 199.8 105.569C195.965 105.606 194.296 108.828 193.709 110.401Z" fill="#F3B13D"/>
<path d="M211.549 104.953C210.521 104.245 208.429 103.058 205.974 103.058C204.444 103.058 202.773 103.52 201.132 104.847C201.553 102.266 203.724 100.295 206.332 100.295C208.975 100.295 211.17 102.32 211.549 104.953Z" fill="#F3B13D"/>
<path d="M207.816 110.401C207.229 108.828 205.561 105.606 201.725 105.569C203.086 104.372 205.114 104.258 206.606 105.408C208.127 106.58 208.593 108.687 207.816 110.401Z" fill="#F3B13D"/>
<path d="M82.0149 111.173V126.14C82.0149 126.414 82.191 126.596 82.4551 126.596C82.7192 126.596 82.8953 126.414 82.8953 126.14V111.173C88.0455 110.945 92.1392 106.519 92.1392 101.135C92.1392 95.6138 87.7814 91.0964 82.4551 91.0964C77.1289 91.0964 72.771 95.6138 72.771 101.135C72.771 103.416 73.5193 105.607 74.8839 107.386C72.4189 107.888 70.5261 110.124 70.5261 112.816C70.5261 115.736 72.683 118.109 75.4121 118.337V126.094C75.4121 126.368 75.5882 126.551 75.8523 126.551C76.1164 126.551 76.2925 126.368 76.2925 126.094V118.337C79.0217 118.109 81.1786 115.736 81.1786 112.816C81.1786 112.177 81.0905 111.584 80.8704 110.991C81.3106 111.128 81.6628 111.173 82.0149 111.173ZM82.4551 92.0547C87.2972 92.0547 91.2588 96.1613 91.2588 101.181C91.2588 106.063 87.5613 110.033 82.8953 110.261V107.204L87.0331 102.914C87.2091 102.732 87.2091 102.458 87.0331 102.276C86.857 102.093 86.5929 102.093 86.4168 102.276L82.8953 105.926V99.4466C82.8953 99.1729 82.7192 98.9903 82.4551 98.9903C82.191 98.9903 82.0149 99.1729 82.0149 99.4466V105.88L78.4934 102.23C78.3174 102.048 78.0532 102.048 77.8772 102.23C77.7011 102.413 77.7011 102.686 77.8772 102.869L82.0149 107.158V110.215C81.5307 110.17 81.0025 110.124 80.4743 109.987C79.5499 108.39 77.8772 107.341 75.9844 107.295C74.4877 105.652 73.6514 103.462 73.6514 101.181C73.6514 96.1613 77.6131 92.0547 82.4551 92.0547ZM76.3365 117.47V116.147L78.4494 113.957C78.6255 113.774 78.6255 113.501 78.4494 113.318C78.2733 113.136 78.0092 113.136 77.8332 113.318L76.3365 114.869V111.949C76.3365 111.675 76.1604 111.493 75.8963 111.493C75.6322 111.493 75.4562 111.675 75.4562 111.949V114.869L73.9595 113.318C73.7834 113.136 73.5193 113.136 73.3433 113.318C73.1672 113.501 73.1672 113.774 73.3433 113.957L75.5002 116.193V117.516C73.2552 117.288 71.4945 115.326 71.4945 112.907C71.4945 110.398 73.4313 108.344 75.8523 108.299H75.9404C78.4054 108.299 80.3862 110.398 80.3862 112.907C80.3422 115.28 78.5815 117.242 76.3365 117.47Z" fill="#F3B13D"/>
<path d="M82.4551 92.0547C87.2972 92.0547 91.2588 96.1613 91.2588 101.181C91.2588 106.063 87.5613 110.033 82.8953 110.261V107.204L87.0331 102.914C87.2091 102.732 87.2091 102.458 87.0331 102.276C86.857 102.093 86.5929 102.093 86.4168 102.276L82.8953 105.926V99.4466C82.8953 99.1729 82.7192 98.9903 82.4551 98.9903C82.191 98.9903 82.0149 99.1729 82.0149 99.4466V105.88L78.4934 102.23C78.3174 102.048 78.0532 102.048 77.8772 102.23C77.7011 102.413 77.7011 102.686 77.8772 102.869L82.0149 107.158V110.215C81.5307 110.17 81.0025 110.124 80.4743 109.987C79.5499 108.39 77.8772 107.341 75.9844 107.295C74.4877 105.652 73.6514 103.462 73.6514 101.181C73.6514 96.1613 77.6131 92.0547 82.4551 92.0547Z" fill="#F3B13D"/>
<path d="M76.3365 117.47V116.147L78.4494 113.957C78.6255 113.774 78.6255 113.501 78.4494 113.318C78.2733 113.136 78.0092 113.136 77.8332 113.318L76.3365 114.869V111.949C76.3365 111.675 76.1604 111.493 75.8963 111.493C75.6322 111.493 75.4562 111.675 75.4562 111.949V114.869L73.9595 113.318C73.7834 113.136 73.5193 113.136 73.3433 113.318C73.1672 113.501 73.1672 113.774 73.3433 113.957L75.5002 116.193V117.516C73.2552 117.288 71.4945 115.326 71.4945 112.907C71.4945 110.398 73.4313 108.344 75.8523 108.299H75.9404C78.4054 108.299 80.3862 110.398 80.3862 112.907C80.3422 115.28 78.5815 117.242 76.3365 117.47Z" fill="#F3B13D"/>
<path d="M63.4825 114.504V126.14C63.4825 126.413 63.6586 126.596 63.9227 126.596C64.1868 126.596 64.3629 126.413 64.3629 126.14V114.504C68.3686 114.276 71.5819 110.808 71.5819 106.565C71.5819 102.184 68.1485 98.625 63.9227 98.625C59.6969 98.625 56.2634 102.23 56.2634 106.61C56.2634 110.808 59.4328 114.276 63.4825 114.504ZM63.9227 99.5832C67.6643 99.5832 70.7015 102.732 70.7015 106.61C70.7015 110.306 67.8843 113.363 64.3629 113.591V111.356L67.5762 108.025C67.7523 107.842 67.7523 107.568 67.5762 107.386C67.4001 107.203 67.136 107.203 66.96 107.386L64.3629 110.078V105.287C64.3629 105.013 64.1868 104.831 63.9227 104.831C63.6586 104.831 63.4825 105.013 63.4825 105.287V110.078L60.8854 107.386C60.7093 107.203 60.4452 107.203 60.2691 107.386C60.0931 107.568 60.0931 107.842 60.2691 108.025L63.4825 111.356V113.591C59.961 113.363 57.1438 110.306 57.1438 106.565C57.1438 102.732 60.1811 99.5832 63.9227 99.5832Z" fill="#F3B13D"/>
<path d="M63.9227 99.5832C67.6643 99.5832 70.7015 102.732 70.7015 106.61C70.7015 110.306 67.8843 113.363 64.3629 113.591V111.356L67.5762 108.025C67.7523 107.842 67.7523 107.568 67.5762 107.386C67.4001 107.203 67.136 107.203 66.96 107.386L64.3629 110.078V105.287C64.3629 105.013 64.1868 104.831 63.9227 104.831C63.6586 104.831 63.4825 105.013 63.4825 105.287V110.078L60.8854 107.386C60.7093 107.203 60.4452 107.203 60.2691 107.386C60.0931 107.568 60.0931 107.842 60.2691 108.025L63.4825 111.356V113.591C59.961 113.363 57.1438 110.306 57.1438 106.565C57.1438 102.732 60.1811 99.5832 63.9227 99.5832Z" fill="#F3B13D"/>
<path d="M189.065 105.746C189.065 105.899 189.15 106.037 189.284 106.101C189.417 106.164 189.574 106.142 189.686 106.044C189.7 106.031 191.122 104.789 193.163 104.169C194.303 103.823 195.396 103.737 196.437 103.904C195.745 104.031 195.071 104.317 194.47 104.781C192.401 106.377 191.969 109.42 193.508 111.565C193.58 111.666 193.693 111.723 193.811 111.722C193.836 111.722 193.862 111.72 193.888 111.714C194.031 111.683 194.145 111.568 194.178 111.42C194.181 111.406 194.511 109.967 195.487 108.637C196.706 106.974 198.351 106.214 200.377 106.372V125.282H199.411C199.204 125.282 199.035 125.457 199.035 125.673C199.035 125.889 199.204 126.063 199.411 126.063H202.096C202.304 126.063 202.473 125.889 202.473 125.673C202.473 125.457 202.304 125.282 202.096 125.282H201.131V106.373C203.164 106.211 204.816 106.969 206.039 108.637C207.014 109.967 207.344 111.406 207.347 111.42C207.381 111.568 207.494 111.683 207.637 111.714C207.663 111.72 207.689 111.722 207.715 111.722C207.832 111.722 207.945 111.665 208.017 111.565C209.556 109.421 209.125 106.377 207.055 104.781C206.441 104.307 205.75 104.018 205.042 103.895C206.054 103.748 207.114 103.836 208.218 104.167C210.275 104.786 211.725 106.047 211.739 106.06C211.85 106.158 212.007 106.181 212.141 106.117C212.274 106.053 212.359 105.915 212.359 105.763C212.359 102.317 209.655 99.5143 206.332 99.5143C205.132 99.5143 204.016 99.8838 203.075 100.513C203.974 99.4784 205.159 98.7942 206.626 98.4748C208.507 98.0659 210.169 98.4314 210.185 98.4346C210.328 98.467 210.477 98.4103 210.566 98.2889C210.655 98.1674 210.667 98.0042 210.599 97.8699C209.183 95.112 205.866 94.0611 203.204 95.5283C202 96.1922 201.138 97.2614 200.681 98.4865C200.224 97.2611 199.362 96.1922 198.158 95.5283C195.496 94.0611 192.179 95.1116 190.764 97.8699C190.695 98.0046 190.707 98.1682 190.796 98.2893C190.885 98.4103 191.034 98.4681 191.177 98.4346C191.193 98.4307 192.832 98.0671 194.711 98.4693C196.192 98.7868 197.387 99.4745 198.291 100.518C197.358 99.8963 196.251 99.5307 195.061 99.5307C191.755 99.5304 189.065 102.319 189.065 105.746ZM189.876 104.937C190.255 102.322 192.436 100.311 195.061 100.311C197.651 100.311 199.809 102.269 200.23 104.831C195.983 101.399 191.539 103.795 189.876 104.937ZM193.709 110.401C192.932 108.687 193.398 106.581 194.919 105.408C195.621 104.866 196.442 104.605 197.256 104.605C198.172 104.605 199.079 104.936 199.8 105.569C195.965 105.606 194.296 108.828 193.709 110.401ZM207.816 110.401C207.229 108.828 205.561 105.606 201.725 105.569C203.086 104.372 205.114 104.258 206.606 105.408C208.127 106.58 208.593 108.687 207.816 110.401ZM211.549 104.953C210.521 104.245 208.429 103.058 205.974 103.058C204.444 103.058 202.773 103.52 201.132 104.847C201.553 102.266 203.724 100.295 206.332 100.295C208.975 100.295 211.17 102.32 211.549 104.953ZM203.559 96.2172C204.262 95.8294 205.018 95.6455 205.764 95.6455C207.203 95.6455 208.603 96.3297 209.509 97.5532C207.664 97.3821 203.255 97.4915 201.269 101.976C200.613 99.7807 201.531 97.336 203.559 96.2172ZM192.815 97.5094C192.45 97.5094 192.124 97.5282 191.852 97.5532C193.228 95.6955 195.744 95.0812 197.804 96.2172C199.832 97.3356 200.75 99.7807 200.093 101.976C198.398 98.1495 194.94 97.5094 192.815 97.5094Z" fill="#F8F8F8"/>
<path d="M22.0515 126.063C22.2918 126.063 22.4519 125.897 22.4519 125.648V124.403C24.8942 124.154 26.8161 121.996 26.8161 119.381C26.8161 116.6 24.654 114.359 21.9714 114.359C19.2889 114.359 17.1268 116.6 17.1268 119.381C17.1268 122.037 19.1287 124.237 21.6912 124.403V125.648C21.6511 125.856 21.8513 126.063 22.0515 126.063ZM17.8876 119.381C17.8876 117.057 19.7293 115.189 21.9314 115.189C24.1335 115.189 26.0153 117.057 26.0153 119.381C26.0153 121.539 24.4538 123.324 22.4519 123.573V122.452L24.4138 120.419C24.5739 120.253 24.5739 120.004 24.4138 119.838C24.2536 119.672 24.0134 119.672 23.8532 119.838L22.4519 121.29V118.592C22.4519 118.343 22.2918 118.177 22.0515 118.177C21.8113 118.177 21.6511 118.343 21.6511 118.592V121.29L20.2498 119.838C20.0897 119.672 19.8494 119.672 19.6893 119.838C19.5291 120.004 19.5291 120.253 19.6893 120.419L21.6511 122.452V123.614C19.5692 123.407 17.8876 121.581 17.8876 119.381Z" fill="#F8F8F8"/>
<path d="M41.8166 126.595C42.0738 126.595 42.2453 126.418 42.2453 126.151V119.886C46.2314 119.486 49.3174 113.311 49.3174 105.491C49.3174 97.4046 46.0171 91.0955 41.8166 91.0955C39.3735 91.0955 37.1447 93.317 35.7303 97.0491C34.273 95.8495 32.4728 95.1386 30.4583 95.1386C25.7863 95.1386 21.9716 99.0929 21.9716 103.936C21.9716 108.69 25.6149 112.555 30.1582 112.689V126.107C30.1582 126.373 30.3297 126.551 30.5868 126.551C30.844 126.551 31.0155 126.373 31.0155 126.107V112.689C32.4299 112.6 33.7586 112.111 34.9159 111.356C36.0732 116.287 38.5163 119.531 41.3023 119.842V126.107C41.388 126.373 41.5595 126.595 41.8166 126.595ZM31.0583 109.312L34.7016 105.535C34.873 105.358 34.873 105.091 34.7016 104.913C34.5301 104.736 34.273 104.736 34.1015 104.913L31.0583 108.068V102.425C31.0583 102.159 30.8869 101.981 30.6297 101.981C30.3725 101.981 30.2011 102.159 30.2011 102.425V108.068L27.1579 104.913C26.9865 104.736 26.7293 104.736 26.5578 104.913C26.3864 105.091 26.3864 105.358 26.5578 105.535L30.2011 109.312V111.844C26.1292 111.711 22.8717 108.201 22.8717 103.98C22.8717 99.6261 26.3007 96.0717 30.5011 96.0717C34.7016 96.0717 38.1305 99.6261 38.1305 103.98C38.1305 108.112 35.0016 111.533 31.1012 111.844V109.312H31.0583ZM35.7303 110.823C37.7019 109.223 38.9449 106.735 38.9449 103.936C38.9449 101.492 37.9591 99.2706 36.416 97.6712C37.659 94.1167 39.6735 91.9841 41.8166 91.9841C45.4599 91.9841 48.4602 98.071 48.4602 105.491C48.4602 112.644 45.7171 118.509 42.2453 118.998V108.379C42.2453 108.112 42.0738 107.935 41.8166 107.935C41.5595 107.935 41.388 108.112 41.388 108.379V118.998C38.902 118.687 36.7161 115.532 35.7303 110.823Z" fill="#F8F8F8"/>
<path d="M219.579 114.504V126.14C219.579 126.413 219.755 126.596 220.019 126.596C220.284 126.596 220.46 126.413 220.46 126.14V114.504C224.465 114.276 227.679 110.808 227.679 106.565C227.679 102.184 224.245 98.625 220.019 98.625C215.794 98.625 212.36 102.23 212.36 106.61C212.36 110.808 215.53 114.276 219.579 114.504ZM220.019 99.5832C223.761 99.5832 226.798 102.732 226.798 106.61C226.798 110.306 223.981 113.363 220.46 113.591V111.356L223.673 108.025C223.849 107.842 223.849 107.568 223.673 107.386C223.497 107.203 223.233 107.203 223.057 107.386L220.46 110.078V105.287C220.46 105.013 220.284 104.831 220.019 104.831C219.755 104.831 219.579 105.013 219.579 105.287V110.078L216.982 107.386C216.806 107.203 216.542 107.203 216.366 107.386C216.19 107.568 216.19 107.842 216.366 108.025L219.579 111.356V113.591C216.058 113.363 213.241 110.306 213.241 106.565C213.241 102.732 216.278 99.5832 220.019 99.5832Z" fill="#F8F8F8"/>
<path d="M238.112 111.173V126.14C238.112 126.414 238.288 126.596 238.552 126.596C238.816 126.596 238.992 126.414 238.992 126.14V111.173C244.142 110.945 248.236 106.519 248.236 101.135C248.236 95.6138 243.878 91.0964 238.552 91.0964C233.226 91.0964 228.868 95.6138 228.868 101.135C228.868 103.416 229.616 105.607 230.981 107.386C228.516 107.888 226.623 110.124 226.623 112.816C226.623 115.736 228.78 118.109 231.509 118.337V126.094C231.509 126.368 231.685 126.551 231.949 126.551C232.213 126.551 232.389 126.368 232.389 126.094V118.337C235.118 118.109 237.275 115.736 237.275 112.816C237.275 112.177 237.187 111.584 236.967 110.991C237.407 111.128 237.76 111.173 238.112 111.173ZM238.552 92.0547C243.394 92.0547 247.356 96.1613 247.356 101.181C247.356 106.063 243.658 110.033 238.992 110.261V107.204L243.13 102.914C243.306 102.732 243.306 102.458 243.13 102.276C242.954 102.093 242.69 102.093 242.514 102.276L238.992 105.926V99.4466C238.992 99.1729 238.816 98.9903 238.552 98.9903C238.288 98.9903 238.112 99.1729 238.112 99.4466V105.88L234.59 102.23C234.414 102.048 234.15 102.048 233.974 102.23C233.798 102.413 233.798 102.686 233.974 102.869L238.112 107.158V110.215C237.627 110.17 237.099 110.124 236.571 109.987C235.647 108.39 233.974 107.341 232.081 107.295C230.584 105.652 229.748 103.462 229.748 101.181C229.748 96.1613 233.71 92.0547 238.552 92.0547ZM232.433 117.47V116.147L234.546 113.957C234.722 113.774 234.722 113.501 234.546 113.318C234.37 113.136 234.106 113.136 233.93 113.318L232.433 114.869V111.949C232.433 111.675 232.257 111.493 231.993 111.493C231.729 111.493 231.553 111.675 231.553 111.949V114.869L230.056 113.318C229.88 113.136 229.616 113.136 229.44 113.318C229.264 113.501 229.264 113.774 229.44 113.957L231.597 116.193V117.516C229.352 117.288 227.591 115.326 227.591 112.907C227.591 110.398 229.528 108.344 231.949 108.299H232.037C234.502 108.299 236.483 110.398 236.483 112.907C236.439 115.28 234.678 117.242 232.433 117.47Z" fill="#F8F8F8"/>
<path d="M63.4825 114.504V126.14C63.4825 126.413 63.6586 126.596 63.9227 126.596C64.1868 126.596 64.3629 126.413 64.3629 126.14V114.504C68.3686 114.276 71.5819 110.808 71.5819 106.565C71.5819 102.184 68.1485 98.625 63.9227 98.625C59.6969 98.625 56.2634 102.23 56.2634 106.61C56.2634 110.808 59.4328 114.276 63.4825 114.504ZM63.9227 99.5832C67.6643 99.5832 70.7015 102.732 70.7015 106.61C70.7015 110.306 67.8844 113.363 64.3629 113.591V111.356L67.5762 108.025C67.7523 107.842 67.7523 107.568 67.5762 107.386C67.4001 107.203 67.136 107.203 66.96 107.386L64.3629 110.078V105.287C64.3629 105.013 64.1868 104.831 63.9227 104.831C63.6586 104.831 63.4825 105.013 63.4825 105.287V110.078L60.8854 107.386C60.7093 107.203 60.4452 107.203 60.2691 107.386C60.0931 107.568 60.0931 107.842 60.2691 108.025L63.4825 111.356V113.591C59.961 113.363 57.1438 110.306 57.1438 106.565C57.1438 102.732 60.1811 99.5832 63.9227 99.5832Z" fill="#F8F8F8"/>
<path d="M82.0149 111.173V126.14C82.0149 126.414 82.191 126.596 82.4551 126.596C82.7192 126.596 82.8953 126.414 82.8953 126.14V111.173C88.0455 110.945 92.1392 106.519 92.1392 101.135C92.1392 95.6138 87.7814 91.0964 82.4551 91.0964C77.1289 91.0964 72.771 95.6138 72.771 101.135C72.771 103.416 73.5193 105.607 74.8839 107.386C72.4189 107.888 70.5261 110.124 70.5261 112.816C70.5261 115.736 72.683 118.109 75.4121 118.337V126.094C75.4121 126.368 75.5882 126.551 75.8523 126.551C76.1164 126.551 76.2925 126.368 76.2925 126.094V118.337C79.0217 118.109 81.1786 115.736 81.1786 112.816C81.1786 112.177 81.0905 111.584 80.8704 110.991C81.3106 111.128 81.6628 111.173 82.0149 111.173ZM82.4551 92.0547C87.2972 92.0547 91.2588 96.1613 91.2588 101.181C91.2588 106.063 87.5613 110.033 82.8953 110.261V107.204L87.0331 102.914C87.2091 102.732 87.2091 102.458 87.0331 102.276C86.857 102.093 86.5929 102.093 86.4168 102.276L82.8953 105.926V99.4466C82.8953 99.1729 82.7192 98.9903 82.4551 98.9903C82.191 98.9903 82.0149 99.1729 82.0149 99.4466V105.88L78.4934 102.23C78.3174 102.048 78.0532 102.048 77.8772 102.23C77.7011 102.413 77.7011 102.686 77.8772 102.869L82.0149 107.158V110.215C81.5307 110.17 81.0025 110.124 80.4743 109.987C79.5499 108.39 77.8772 107.341 75.9844 107.295C74.4877 105.652 73.6514 103.462 73.6514 101.181C73.6514 96.1613 77.6131 92.0547 82.4551 92.0547ZM76.3365 117.47V116.147L78.4494 113.957C78.6255 113.774 78.6255 113.501 78.4494 113.318C78.2733 113.136 78.0092 113.136 77.8332 113.318L76.3365 114.869V111.949C76.3365 111.675 76.1604 111.493 75.8963 111.493C75.6322 111.493 75.4562 111.675 75.4562 111.949V114.869L73.9595 113.318C73.7834 113.136 73.5193 113.136 73.3433 113.318C73.1672 113.501 73.1672 113.774 73.3433 113.957L75.5002 116.193V117.516C73.2552 117.288 71.4945 115.326 71.4945 112.907C71.4945 110.398 73.4313 108.344 75.8523 108.299H75.9404C78.4054 108.299 80.3862 110.398 80.3862 112.907C80.3422 115.28 78.5815 117.242 76.3365 117.47Z" fill="#F8F8F8"/>
<path d="M64.001 33.4006C63.9028 25.913 71.0206 23.7944 74.5918 23.6711C77.2362 20.6631 80.9989 15.9936 90.4787 16.7747C98.8531 17.4648 102.26 24.205 102.917 27.4891C105.257 27.6123 109.814 29.3611 109.321 35.371C108.829 41.3809 103.205 43.2118 100.454 43.376H74.5918C71.1025 43.1707 64.0992 40.8883 64.001 33.4006Z" stroke="#F8F8F8" stroke-width="1.07863" stroke-linecap="round" stroke-linejoin="round"/>
<path d="M160.322 17.7127C160.224 10.225 167.341 8.10646 170.913 7.98316C173.557 4.97512 177.32 0.305634 186.799 1.08675C195.174 1.77679 198.581 8.51704 199.238 11.8011C201.578 11.9243 206.135 13.6731 205.642 19.683C205.149 25.6929 199.525 27.5238 196.775 27.688H170.913C167.423 27.4828 160.42 25.2003 160.322 17.7127Z" stroke="#F8F8F8" stroke-width="1.07863" stroke-linecap="round" stroke-linejoin="round"/>
</svg>
